<?xml version="1.0" encoding="UTF-8" standalone="no"?>
<!DOCTYPE svg PUBLIC "-//W3C//DTD SVG 1.1//EN" "http://www.w3.org/Graphics/SVG/1.1/DTD/svg11.dtd">
<svg width="144.00" height="79.20" viewBox="0.00 0.00 2400.00 1320.00" xmlns="http://www.w3.org/2000/svg" xmlns:xlink="http://www.w3.org/1999/xlink">
<g stroke-linecap="round" transform="translate(-68.00, -669.00)" id="Rope_Lines">
<path d="M1857.32,1761.26 C1875.19,1756.42 1907.57,1747.35 1922.07,1743.14 C1935.34,1738.99 1959.13,1730.91 1977.21,1723.91 C2005.71,1711.93 2073.92,1682.87 2092.66,1674.26 C2107.93,1666.92 2134.42,1652.94 2147.84,1645.67 C2161.62,1637.80 2193.28,1617.97 2204.02,1610.56 C2216.85,1601.35 2243.29,1581.26 2256.82,1570.44 C2269.58,1559.88 2295.23,1537.26 2303.89,1528.66 C2310.18,1522.12 2322.06,1508.77 2325.95,1503.74 C2334.45,1492.31 2349.79,1470.31 2358.40,1455.60 C2362.26,1448.73 2368.99,1435.96 2372.58,1427.98 C2376.54,1418.81 2380.08,1407.84 2382.63,1398.79 C2384.57,1391.05 2387.90,1375.56 2389.45,1367.94 C2391.39,1357.35 2392.83,1345.84 2393.58,1338.55 C2394.48,1328.00 2394.70,1316.89 2393.91,1308.64 C2393.22,1301.60 2390.30,1287.33 2387.98,1278.12 C2385.74,1270.12 2380.57,1253.82 2377.94,1245.83 C2375.29,1238.34 2371.03,1226.95 2366.46,1216.65 C2363.18,1209.72 2356.47,1196.77 2352.86,1190.67 C2349.79,1185.67 2340.46,1171.90 2335.99,1166.20 C2326.93,1155.02 2305.39,1131.51 2293.51,1119.84 C2285.54,1112.23 2259.68,1089.95 2247.62,1080.20 C2237.44,1072.34 2210.86,1053.56 2194.06,1042.77 C2180.24,1034.22 2151.43,1017.30 2137.15,1009.08 C2124.07,1001.80 2094.13,986.15 2079.33,979.03 C2065.96,973.09 2039.08,961.52 2023.56,955.45 C2008.87,949.97 1980.12,939.17 1966.05,933.85 C1951.53,928.19 1924.32,919.66 1910.42,915.85 C1879.00,907.53 1817.19,891.29 1786.79,883.38 C1765.79,878.61 1684.24,862.98 1666.32,859.98 C1636.38,855.72 1574.13,847.38 1541.81,843.30 C1526.40,841.69 1496.14,838.82 1481.28,837.55 C1465.86,836.47 1434.23,834.46 1418.01,833.53 C1403.33,832.84 1372.72,831.52 1356.80,830.88 C1340.33,830.43 1307.38,829.81 1290.90,829.65 C1258.54,830.00 1194.40,832.29 1162.94,833.66 C1131.16,835.43 1069.34,839.25 1039.53,841.72 C1024.03,843.32 992.56,846.82 976.59,848.72 C961.32,850.74 931.73,854.80 916.34,857.24 C901.72,859.79 872.15,865.20 857.19,868.06 C827.57,874.29 766.56,887.72 735.17,894.93 C719.74,898.87 688.88,907.00 673.44,911.19 C658.35,915.54 629.12,924.25 614.98,928.60 C599.14,933.99 568.52,944.87 553.73,950.36 C540.08,955.70 511.98,967.14 497.52,973.24 C483.63,979.41 451.78,994.46 442.19,999.39 C428.41,1006.74 400.79,1021.88 386.95,1029.67 C373.83,1037.35 345.35,1055.11 331.92,1063.93 C325.81,1068.13 312.23,1077.66 307.82,1081.02 C295.67,1090.60 270.90,1113.10 262.72,1121.00 C257.34,1126.26 246.49,1137.09 240.88,1143.05 C234.09,1150.50 212.08,1178.41 202.79,1191.07 C196.27,1200.28 189.82,1210.35 185.74,1216.95 C181.75,1223.61 174.08,1237.12 170.77,1244.29 C167.12,1252.24 162.68,1264.64 160.49,1272.78 C158.58,1279.91 155.41,1296.07 154.53,1302.68 C153.51,1310.45 152.39,1327.60 152.51,1334.31 C152.75,1341.85 153.84,1357.36 154.69,1365.31 C155.75,1373.39 158.41,1389.12 159.99,1396.67 C162.55,1407.43 165.68,1417.90 168.88,1426.22 C171.73,1433.56 176.82,1444.37 181.87,1454.02 C185.49,1460.69 194.73,1476.67 197.13,1480.34 C205.67,1493.24 224.66,1518.94 234.64,1530.71 C239.66,1536.45 250.44,1547.35 255.97,1552.64 C264.43,1560.41 294.18,1585.04 303.49,1591.85 C315.78,1600.60 341.74,1618.16 354.78,1626.85 C364.52,1633.22 389.29,1648.41 400.40,1655.13 C406.34,1658.54 420.45,1666.00 428.61,1670.03 C447.17,1678.71 474.45,1690.46 487.68,1696.02 C502.81,1702.13 534.70,1714.76 551.44,1721.28 C567.52,1727.33 598.51,1738.74 613.42,1744.12 C627.47,1748.98 664.04,1760.64 680.87,1765.57 C696.73,1769.89 725.36,1777.13 739.06,1780.56 C752.19,1783.69 779.52,1789.88 793.71,1792.95 C806.29,1795.45 838.56,1801.10 856.22,1804.06 C884.52,1808.26 946.69,1817.12 980.55,1821.79 C996.70,1823.73 1029.33,1827.32 1045.81,1828.98 C1062.27,1830.32 1094.58,1832.65 1110.43,1833.65 C1125.97,1834.41 1156.93,1835.77 1172.36,1836.37 C1187.90,1836.79 1219.13,1837.46 1234.81,1837.71 C1250.52,1837.80 1282.17,1837.75 1298.13,1837.62 C1314.44,1837.23 1347.33,1836.15 1363.90,1835.45 C1398.46,1833.31 1461.89,1829.05 1490.76,1826.94 C1509.77,1825.28 1541.81,1822.19 1554.84,1820.76 C1568.73,1819.05 1641.92,1808.03 1670.58,1803.90 C1683.17,1801.95 1721.39,1794.33 1736.81,1791.02 C1752.12,1787.44 1784.36,1779.69 1801.28,1775.52 C1817.01,1771.56 1845.02,1764.43 1857.32,1761.26 Z" fill="none" stroke="rgb(162, 162, 162)" stroke-width="94.00" stroke-opacity="1.00" stroke-linejoin="round"/>
</g>
<g stroke-linecap="round" transform="translate(40.00, -661.00)" id="ALL_CAPS_2">
<path d="M820.37,1529.87 C820.65,1528.43 821.51,1526.40 822.58,1525.80 C823.65,1525.22 829.26,1524.65 829.86,1525.33 C830.17,1525.70 830.32,1526.81 830.31,1528.66" fill="none" stroke="rgb(255, 248, 0)" stroke-width="16.01" stroke-opacity="1.00" stroke-linejoin="round"/>
<path d="M897.72,1600.28 C896.35,1597.12 895.46,1593.95 894.96,1589.94 C893.70,1580.08 893.45,1574.46 893.48,1562.03 C893.58,1552.41 893.83,1525.50 893.73,1525.39 C893.37,1525.05 892.91,1526.03 892.41,1526.07 C891.99,1526.14 891.60,1525.37 891.22,1525.58 C891.14,1525.65 890.55,1582.02 890.84,1585.25 C891.25,1589.62 893.62,1595.02 894.91,1596.72 C896.44,1598.62 900.54,1603.84 902.14,1605.17 C904.29,1606.94 911.53,1610.67 914.21,1611.53 C917.23,1612.46 922.05,1612.99 925.66,1612.57 C928.53,1612.20 933.38,1610.89 936.72,1609.03 C940.97,1606.59 945.81,1602.31 948.04,1599.02 C949.56,1596.70 952.06,1591.46 952.61,1587.40 C952.86,1585.48 952.90,1524.82 952.73,1524.74 C952.18,1524.56 951.74,1525.54 951.16,1525.49 C950.52,1525.47 950.02,1524.30 949.46,1524.60 C949.32,1524.70 949.07,1569.86 949.02,1585.12 C949.03,1589.54 948.46,1594.73 946.65,1598.82 C946.41,1599.35 945.94,1600.35 945.24,1601.81" fill="none" stroke="rgb(255, 248, 0)" stroke-width="16.01" stroke-opacity="1.00" stroke-linejoin="round"/>
<path d="M821.94,1528.01 C820.37,1529.45 819.76,1530.30 819.18,1532.09 C813.79,1547.61 803.57,1576.62 798.73,1590.11" fill="none" stroke="rgb(255, 248, 0)" stroke-width="16.01" stroke-opacity="1.00" stroke-linejoin="round"/>
<path d="M848.33,1576.48 C848.11,1578.01 847.50,1582.22 847.69,1583.21 C847.90,1584.44 848.98,1585.64 848.62,1586.83 C848.34,1587.65 838.11,1587.62 836.12,1587.61 C827.45,1587.61 812.00,1587.66 810.00,1587.76 C807.10,1587.84 805.55,1587.68 805.15,1586.83 C804.61,1585.51 805.21,1580.38 805.15,1579.07 C805.14,1578.63 804.93,1578.20 804.51,1577.77" fill="none" stroke="rgb(255, 248, 0)" stroke-width="16.01" stroke-opacity="1.00" stroke-linejoin="round"/>
<path d="M799.19,1587.90 C815.29,1587.71 851.08,1587.36 851.58,1588.17 C851.79,1588.55 851.44,1589.06 851.58,1589.47 C851.74,1589.98 852.37,1590.25 852.55,1590.76 C852.75,1591.38 852.45,1592.20 852.87,1592.70 C853.38,1593.29 854.57,1593.25 854.80,1593.99 C855.07,1594.84 854.29,1595.70 854.16,1596.58 C854.11,1596.92 854.91,1596.64 855.13,1596.90 C855.80,1597.74 857.37,1602.40 857.06,1602.08 C856.83,1601.83 849.58,1588.39 849.26,1588.39 C849.02,1588.61 858.56,1611.49 858.94,1612.48" fill="none" stroke="rgb(255, 248, 0)" stroke-width="16.01" stroke-opacity="1.00" stroke-linejoin="round"/>
<path d="M796.16,1597.23 C796.16,1597.23 796.16,1599.17 796.16,1599.17" fill="none" stroke="rgb(255, 248, 0)" stroke-width="16.01" stroke-opacity="1.00" stroke-linejoin="round"/>
<path d="M821.66,1526.16 C824.21,1525.98 829.07,1525.39 829.39,1525.42 C830.70,1525.57 831.57,1526.98 832.26,1529.26 C832.38,1529.71 857.76,1607.54 857.39,1607.09 C856.82,1606.28 845.85,1574.94 845.74,1574.00 C845.72,1573.74 861.25,1611.15 861.35,1611.80 C861.37,1612.05 847.57,1582.78 847.60,1582.85 C851.32,1590.90 859.65,1608.69 861.69,1611.08 C863.50,1613.10 866.59,1615.19 870.94,1617.68" fill="none" stroke="rgb(255, 248, 0)" stroke-width="16.01" stroke-opacity="1.00" stroke-linejoin="round"/>
<path d="M789.60,1612.06 C791.35,1607.88 795.53,1597.97 795.83,1598.20 C796.08,1598.64 792.52,1611.36 791.85,1612.98 C791.54,1613.69 791.49,1612.62 791.76,1611.05 C792.87,1604.79 801.62,1582.09 802.25,1581.08 C802.52,1580.73 792.24,1608.74 792.24,1609.30 C792.22,1610.12 792.90,1611.01 792.52,1611.74 C792.36,1612.04 784.96,1615.59 783.07,1617.24" fill="none" stroke="rgb(255, 248, 0)" stroke-width="16.01" stroke-opacity="1.00" stroke-linejoin="round"/>
<path d="M792.90,1610.80 C793.43,1607.90 794.34,1602.93 794.53,1602.72 C794.75,1602.46 795.36,1602.71 795.49,1602.39 C795.84,1601.63 795.81,1597.94 795.50,1598.51 C794.45,1600.55 793.28,1609.17 793.63,1610.01 C793.88,1610.49 805.05,1580.06 805.51,1578.81" fill="none" stroke="rgb(255, 248, 0)" stroke-width="16.01" stroke-opacity="1.00" stroke-linejoin="round"/>
<path d="M792.29,1610.17 C792.29,1610.17 791.00,1610.81 791.00,1610.81" fill="none" stroke="rgb(255, 248, 0)" stroke-width="16.01" stroke-opacity="1.00" stroke-linejoin="round"/>
<path d="M829.29,1526.97 L850.77,1590.34" fill="none" stroke="rgb(255, 248, 0)" stroke-width="16.14" stroke-opacity="1.00" stroke-linejoin="round"/>
<path d="M801.38,1585.21 L821.79,1527.38" fill="none" stroke="rgb(255, 248, 0)" stroke-width="16.14" stroke-opacity="1.00" stroke-linejoin="round"/>
<path d="M1119.26,1526.82 C1122.88,1529.51 1125.98,1532.05 1128.24,1534.53 C1130.44,1536.98 1134.24,1542.15 1135.75,1545.12 C1138.32,1550.31 1139.95,1561.23 1140.15,1562.54" fill="none" stroke="rgb(255, 248, 0)" stroke-width="15.57" stroke-opacity="1.00" stroke-linejoin="round"/>
<path d="M1078.68,1530.68 C1076.71,1532.99 1071.75,1538.89 1069.95,1542.05 C1067.43,1546.54 1064.07,1561.10 1063.77,1567.57 C1063.62,1571.24 1064.28,1577.79 1065.20,1581.79 C1066.06,1585.47 1068.48,1592.31 1070.12,1595.06 C1073.41,1600.43 1079.92,1604.59 1084.56,1607.22" fill="none" stroke="rgb(255, 248, 0)" stroke-width="15.57" stroke-opacity="1.00" stroke-linejoin="round"/>
<path d="M1102.11,1611.31 C1105.08,1611.33 1110.19,1610.29 1114.14,1608.82 C1117.79,1607.42 1123.59,1603.90 1126.53,1601.27 C1129.49,1598.58 1133.46,1593.08 1135.12,1589.67 C1136.45,1586.89 1138.89,1579.95 1139.51,1576.36 C1140.07,1573.00 1140.30,1565.03 1139.88,1561.20 C1139.39,1556.91 1137.66,1549.89 1136.07,1546.53 C1134.58,1543.47 1130.43,1537.19 1128.24,1534.77 C1126.15,1532.49 1121.14,1528.24 1117.96,1526.55 C1114.19,1524.58 1108.29,1522.75 1104.32,1522.60 C1101.09,1522.52 1095.23,1523.15 1091.76,1524.26 C1087.97,1525.52 1081.97,1528.26 1079.23,1530.17 C1076.38,1532.21 1072.12,1536.91 1070.53,1540.08 C1069.57,1542.03 1066.41,1550.46 1065.25,1554.09 C1063.95,1558.27 1063.43,1564.47 1063.73,1569.20 C1064.05,1573.56 1065.17,1580.20 1066.21,1583.84 C1067.28,1587.51 1069.30,1592.03 1071.22,1594.67 C1072.79,1596.81 1077.36,1602.21 1079.05,1603.59 C1080.98,1605.13 1086.99,1608.21 1089.85,1609.29 C1093.45,1610.63 1098.09,1611.33 1101.97,1611.31" fill="none" stroke="rgb(255, 248, 0)" stroke-width="15.57" stroke-opacity="1.00" stroke-linejoin="round"/>
<path d="M1118.74,1528.63 C1122.13,1531.15 1125.39,1533.79 1128.00,1536.75 C1130.84,1539.99 1134.68,1546.09 1135.88,1549.29 C1137.06,1552.55 1137.94,1557.42 1138.75,1562.85" fill="none" stroke="rgb(255, 248, 0)" stroke-width="14.91" stroke-opacity="1.00" stroke-linejoin="round"/>
<path d="M1079.87,1532.33 C1077.97,1534.54 1073.12,1540.33 1071.50,1543.22 C1069.76,1546.39 1067.49,1553.92 1066.70,1558.06 C1066.18,1560.81 1065.49,1567.89 1065.55,1570.98 C1065.64,1574.31 1066.87,1581.35 1067.87,1584.84 C1068.95,1588.53 1071.54,1594.13 1073.42,1596.52 C1076.90,1600.80 1084.49,1605.09 1085.49,1605.65" fill="none" stroke="rgb(255, 248, 0)" stroke-width="14.91" stroke-opacity="1.00" stroke-linejoin="round"/>
<path d="M1102.31,1609.57 C1105.15,1609.60 1110.05,1608.60 1113.84,1607.19 C1117.33,1605.85 1122.89,1602.48 1125.71,1599.96 C1128.54,1597.37 1132.34,1592.11 1133.94,1588.84 C1135.21,1586.18 1137.55,1579.53 1138.14,1576.09 C1138.68,1572.87 1138.90,1565.24 1138.50,1561.57 C1138.02,1557.46 1136.37,1550.73 1134.84,1547.51 C1133.42,1544.58 1129.44,1538.57 1127.35,1536.25 C1125.34,1534.06 1120.55,1529.99 1117.50,1528.37 C1113.89,1526.48 1108.23,1524.73 1104.43,1524.59 C1101.34,1524.51 1095.71,1525.11 1092.40,1526.18 C1088.77,1527.38 1083.01,1530.01 1080.39,1531.84 C1077.66,1533.79 1073.58,1538.29 1072.06,1541.34 C1071.14,1543.20 1068.10,1551.28 1067.00,1554.75 C1065.75,1558.76 1065.25,1564.70 1065.54,1569.23 C1065.84,1573.40 1066.92,1579.77 1067.92,1583.26 C1068.94,1586.77 1070.88,1591.10 1072.71,1593.64 C1074.22,1595.69 1078.60,1600.86 1080.22,1602.18 C1082.07,1603.65 1087.83,1606.60 1090.56,1607.64 C1094.02,1608.92 1098.46,1609.60 1102.18,1609.57" fill="none" stroke="rgb(255, 248, 0)" stroke-width="14.91" stroke-opacity="1.00" stroke-linejoin="round"/>
<path d="M1305.45,1521.96 C1306.58,1521.91 1345.18,1521.89 1345.19,1521.89 C1345.47,1522.04 1344.42,1522.19 1344.44,1522.51 C1344.40,1522.80 1345.43,1522.91 1345.15,1523.02 C1344.91,1523.11 1309.30,1523.37 1309.27,1523.38 C1309.04,1523.55 1309.39,1563.40 1309.40,1563.42 C1309.44,1563.46 1337.22,1563.24 1337.45,1563.34 C1337.77,1563.52 1337.66,1565.31 1337.35,1565.47 C1337.10,1565.57 1309.18,1565.52 1309.17,1565.53 C1308.50,1567.71 1308.49,1586.22 1308.51,1595.10 C1308.50,1598.40 1308.35,1605.49 1308.53,1605.64 C1309.43,1606.31 1329.39,1606.29 1338.35,1606.27 C1340.13,1606.28 1347.12,1606.27 1347.26,1606.32 C1347.49,1606.41 1347.42,1607.83 1347.13,1607.98 C1346.86,1608.10 1304.25,1608.22 1304.15,1608.05 C1304.05,1607.85 1303.92,1523.40 1303.92,1523.31 C1303.90,1522.38 1304.32,1522.04 1305.45,1521.96 Z" fill="none" stroke="rgb(255, 248, 0)" stroke-width="16.01" stroke-opacity="1.00" stroke-linejoin="round"/>
<path d="M1428.36,1558.67 C1429.73,1554.42 1430.68,1550.46 1430.76,1546.96 C1430.80,1543.83 1430.15,1537.01 1429.33,1534.48 C1428.61,1532.36 1425.21,1526.99 1423.30,1524.85 C1421.35,1522.73 1414.56,1520.44 1414.85,1520.76 C1415.29,1521.29 1417.36,1521.44 1416.71,1521.66 C1415.57,1522.11 1412.36,1520.91 1410.65,1520.79 C1405.61,1520.44 1379.94,1522.13 1379.84,1522.15 C1379.30,1522.31 1379.43,1548.36 1379.48,1565.48 C1379.52,1582.47 1379.63,1607.34 1379.65,1607.34 C1380.39,1607.22 1380.42,1605.64 1381.18,1605.66 C1382.25,1605.65 1382.82,1607.26 1383.89,1607.39 C1384.18,1607.40 1384.10,1578.84 1384.02,1577.28 C1383.92,1574.85 1384.10,1571.81 1384.63,1571.14 C1384.83,1570.90 1410.58,1571.59 1413.06,1571.43 C1415.98,1571.22 1420.22,1569.34 1422.82,1566.73 C1424.89,1564.59 1427.16,1561.26 1428.42,1558.40 C1429.32,1556.28 1429.90,1550.62 1429.98,1547.32 C1430.02,1544.42 1429.18,1536.24 1428.05,1533.56 C1427.01,1531.16 1423.51,1526.93 1422.81,1526.08" fill="none" stroke="rgb(255, 248, 0)" stroke-width="16.01" stroke-opacity="1.00" stroke-linejoin="round"/>
<path d="M1415.54,1522.25 C1408.55,1521.97 1386.92,1522.23 1386.84,1522.23 C1384.56,1522.17 1383.87,1522.45 1383.81,1523.59 C1383.81,1523.66 1384.33,1569.00 1384.24,1569.75 C1384.16,1570.65 1384.46,1570.73 1386.83,1570.66 C1388.04,1570.61 1408.26,1570.72 1413.09,1570.76" fill="none" stroke="rgb(255, 248, 0)" stroke-width="16.01" stroke-opacity="1.00" stroke-linejoin="round"/>
<path d="M1409.52,1524.57 L1425.73,1532.08" fill="none" stroke="rgb(255, 248, 0)" stroke-width="5.17" stroke-opacity="1.00" stroke-linejoin="round"/>
<path d="M1410.70,1566.87 L1418.43,1564.36" fill="none" stroke="rgb(255, 248, 0)" stroke-width="5.17" stroke-opacity="1.00" stroke-linejoin="round"/>
<path d="M1244.72,1571.35 C1242.13,1570.13 1240.78,1569.74 1238.48,1569.71 C1230.25,1569.51 1216.38,1569.23 1215.83,1569.80 C1215.62,1570.03 1216.33,1592.03 1216.44,1601.26 C1216.48,1607.08 1216.40,1608.18 1215.30,1608.30 C1213.54,1608.40 1213.02,1608.21 1213.08,1607.19 C1213.10,1606.94 1213.27,1522.28 1213.39,1522.03 C1213.86,1521.08 1215.51,1521.04 1220.20,1521.58 C1221.51,1521.75 1238.84,1520.98 1244.84,1522.04" fill="none" stroke="rgb(255, 248, 0)" stroke-width="16.01" stroke-opacity="1.00" stroke-linejoin="round"/>
<path d="M1262.22,1554.09 C1263.39,1551.16 1264.35,1546.79 1264.13,1543.16 C1263.82,1538.82 1262.00,1533.27 1260.12,1530.65 C1258.59,1528.57 1254.78,1525.05 1253.04,1524.19 C1252.60,1523.97 1249.17,1522.70 1248.92,1522.47 C1248.66,1522.25 1248.04,1521.64 1245.66,1521.73 C1245.33,1521.75 1219.07,1522.30 1214.99,1521.60 C1213.85,1521.43 1213.52,1522.18 1213.62,1524.36 C1213.63,1524.59 1214.55,1548.21 1214.99,1557.38 C1215.25,1563.58 1215.32,1567.64 1216.37,1568.12 C1216.38,1568.13 1245.53,1567.46 1245.74,1567.37 C1246.11,1567.22 1246.12,1566.59 1246.49,1566.42 C1247.50,1565.93 1250.39,1565.37 1251.92,1564.29 C1255.75,1561.55 1258.96,1558.06 1260.73,1554.57 C1262.07,1551.82 1263.09,1545.58 1263.20,1544.99 C1263.85,1541.39 1263.69,1539.21 1262.63,1534.70" fill="none" stroke="rgb(255, 248, 0)" stroke-width="16.01" stroke-opacity="1.00" stroke-linejoin="round"/>
<path d="M1244.72,1568.12 C1254.58,1584.83 1268.87,1609.02 1268.94,1609.07 C1268.92,1608.89 1245.28,1568.39 1245.20,1568.44 C1244.56,1568.99 1244.44,1571.31 1245.21,1570.98 C1246.31,1570.68 1245.74,1568.62 1246.59,1567.87 C1246.91,1567.61 1266.04,1601.16 1269.36,1606.96 C1270.28,1608.52 1276.43,1611.61 1280.18,1613.45 C1281.14,1613.92 1282.09,1614.39 1283.04,1614.86" fill="none" stroke="rgb(255, 248, 0)" stroke-width="16.01" stroke-opacity="1.00" stroke-linejoin="round"/>
<path d="M1280.12,1613.26 L1266.90,1613.96" fill="none" stroke="rgb(255, 248, 0)" stroke-width="5.17" stroke-opacity="1.00" stroke-linejoin="round"/>
<path d="M1280.76,1614.36 L1269.01,1614.82" fill="none" stroke="rgb(255, 248, 0)" stroke-width="5.17" stroke-opacity="1.00" stroke-linejoin="round"/>
<path d="M1252.98,1567.66 L1280.57,1613.89" fill="none" stroke="rgb(255, 248, 0)" stroke-width="5.17" stroke-opacity="1.00" stroke-linejoin="round"/>
<path d="M1254.57,1567.44 L1280.32,1613.33" fill="none" stroke="rgb(255, 248, 0)" stroke-width="5.17" stroke-opacity="1.00" stroke-linejoin="round"/>
<path d="M1253.93,1558.65 L1239.65,1566.51" fill="none" stroke="rgb(255, 248, 0)" stroke-width="5.17" stroke-opacity="1.00" stroke-linejoin="round"/>
<path d="M1251.17,1561.54 L1232.47,1565.51" fill="none" stroke="rgb(255, 248, 0)" stroke-width="5.17" stroke-opacity="1.00" stroke-linejoin="round"/>
<path d="M983.06,1525.95 C983.06,1525.62 982.13,1525.34 982.42,1525.18 C982.54,1525.12 1042.40,1524.89 1042.58,1524.97 C1042.88,1525.10 1042.96,1527.07 1042.58,1527.35 C1042.31,1527.52 1015.98,1527.34 1015.93,1527.37 C1015.55,1527.57 1015.67,1573.51 1015.72,1592.96 C1015.75,1599.56 1015.95,1610.04 1015.85,1610.10 C1015.18,1610.45 1011.51,1610.61 1010.60,1610.21 C1010.35,1610.09 1010.42,1528.29 1010.14,1527.89 C1009.71,1527.35 982.68,1527.38 982.52,1527.24 C982.20,1526.91 983.10,1526.41 983.06,1525.95 Z" fill="none" stroke="rgb(255, 248, 0)" stroke-width="16.01" stroke-opacity="1.00" stroke-linejoin="round"/>
<path d="M1555.28,1521.05 C1556.11,1521.09 1556.76,1519.77 1557.55,1520.02 C1557.90,1520.17 1557.95,1605.61 1557.88,1605.63 C1556.89,1605.85 1556.05,1604.52 1555.04,1604.53 C1554.39,1604.51 1553.97,1605.87 1553.40,1605.57 C1553.19,1605.42 1553.15,1519.92 1553.19,1519.90 C1553.96,1519.67 1554.49,1521.05 1555.28,1521.05 Z" fill="none" stroke="rgb(255, 248, 0)" stroke-width="16.01" stroke-opacity="1.00" stroke-linejoin="round"/>
<path d="M1475.82,1524.69 C1476.11,1523.25 1476.96,1521.23 1478.03,1520.62 C1479.10,1520.05 1484.71,1519.48 1485.31,1520.16 C1485.62,1520.53 1485.77,1521.64 1485.76,1523.49" fill="none" stroke="rgb(255, 248, 0)" stroke-width="16.01" stroke-opacity="1.00" stroke-linejoin="round"/>
<path d="M1477.39,1522.84 C1475.82,1524.27 1475.21,1525.13 1474.63,1526.92 C1469.24,1542.44 1459.02,1571.45 1454.18,1584.94" fill="none" stroke="rgb(255, 248, 0)" stroke-width="16.01" stroke-opacity="1.00" stroke-linejoin="round"/>
<path d="M1503.17,1570.06 C1502.41,1571.20 1502.59,1580.33 1502.52,1580.41 C1502.01,1580.99 1480.99,1580.96 1472.18,1581.00 C1470.04,1581.03 1465.57,1581.14 1464.27,1581.23 C1463.36,1581.28 1460.33,1581.25 1459.99,1580.41 C1459.51,1579.13 1460.06,1573.96 1459.99,1572.65 C1459.97,1572.21 1459.75,1571.78 1459.34,1571.35" fill="none" stroke="rgb(255, 248, 0)" stroke-width="16.01" stroke-opacity="1.00" stroke-linejoin="round"/>
<path d="M1454.64,1582.72 C1461.05,1582.56 1477.02,1582.18 1486.58,1581.96 C1499.55,1581.75 1506.56,1582.16 1507.03,1583.00 C1507.22,1583.38 1506.89,1583.88 1507.03,1584.29 C1507.19,1584.81 1507.82,1585.08 1508.00,1585.58 C1508.20,1586.21 1507.90,1587.02 1508.32,1587.53 C1508.83,1588.11 1510.03,1588.08 1510.26,1588.82 C1510.52,1589.67 1509.74,1590.53 1509.61,1591.41 C1509.56,1591.74 1510.36,1591.47 1510.58,1591.73 C1511.25,1592.56 1512.82,1597.23 1512.51,1596.90 C1512.28,1596.65 1505.03,1583.22 1504.71,1583.22 C1504.47,1583.44 1514.01,1606.32 1514.39,1607.30" fill="none" stroke="rgb(255, 248, 0)" stroke-width="16.01" stroke-opacity="1.00" stroke-linejoin="round"/>
<path d="M1451.61,1592.05 C1451.61,1592.05 1451.61,1593.99 1451.61,1593.99" fill="none" stroke="rgb(255, 248, 0)" stroke-width="16.01" stroke-opacity="1.00" stroke-linejoin="round"/>
<path d="M1477.11,1520.99 C1479.66,1520.80 1484.52,1520.21 1484.84,1520.24 C1486.15,1520.39 1487.02,1521.80 1487.71,1524.08 C1487.83,1524.53 1513.21,1602.36 1512.84,1601.92 C1512.27,1601.10 1501.30,1569.76 1501.20,1568.84 C1501.19,1568.57 1516.27,1605.61 1516.33,1606.22 C1516.33,1606.69 1503.08,1577.66 1503.11,1577.71 C1503.41,1578.31 1508.34,1589.00 1510.55,1593.79 C1512.63,1598.22 1516.21,1605.76 1517.87,1607.46 C1519.63,1609.20 1523.92,1611.72 1524.82,1612.26" fill="none" stroke="rgb(255, 248, 0)" stroke-width="16.01" stroke-opacity="1.00" stroke-linejoin="round"/>
<path d="M1443.91,1608.66 C1445.40,1605.27 1449.75,1595.50 1450.56,1593.99 C1451.13,1592.97 1451.46,1593.23 1451.12,1594.69 C1450.33,1598.03 1446.80,1608.37 1446.78,1607.97 C1446.82,1604.35 1456.31,1578.18 1457.70,1575.91 C1457.97,1575.55 1447.68,1603.57 1447.69,1604.13 C1447.69,1604.94 1448.37,1605.85 1447.97,1606.57 C1447.75,1606.95 1440.75,1610.39 1438.90,1611.56" fill="none" stroke="rgb(255, 248, 0)" stroke-width="16.01" stroke-opacity="1.00" stroke-linejoin="round"/>
<path d="M1448.35,1605.63 C1448.88,1602.73 1449.79,1597.76 1449.98,1597.54 C1450.20,1597.29 1450.81,1597.53 1450.95,1597.22 C1451.29,1596.46 1451.26,1592.77 1450.95,1593.34 C1449.90,1595.38 1448.73,1604.00 1449.08,1604.83 C1449.33,1605.32 1460.51,1574.89 1460.97,1573.63" fill="none" stroke="rgb(255, 248, 0)" stroke-width="16.01" stroke-opacity="1.00" stroke-linejoin="round"/>
<path d="M1447.74,1604.99 C1447.74,1604.99 1446.45,1605.64 1446.45,1605.64" fill="none" stroke="rgb(255, 248, 0)" stroke-width="16.01" stroke-opacity="1.00" stroke-linejoin="round"/>
<path d="M1484.74,1521.79 L1506.22,1585.17" fill="none" stroke="rgb(255, 248, 0)" stroke-width="16.14" stroke-opacity="1.00" stroke-linejoin="round"/>
<path d="M1456.83,1580.03 L1477.24,1522.20" fill="none" stroke="rgb(255, 248, 0)" stroke-width="16.14" stroke-opacity="1.00" stroke-linejoin="round"/>
<path d="M1490.10,1519.11 L1523.35,1611.52" fill="none" stroke="rgb(255, 248, 0)" stroke-width="5.17" stroke-opacity="1.00" stroke-linejoin="round"/>
<path d="M1630.78,1569.41 C1629.18,1568.08 1628.08,1567.66 1625.54,1567.64 C1621.09,1567.51 1608.11,1567.28 1607.80,1567.27 C1605.21,1567.23 1603.91,1567.41 1603.71,1568.12 C1603.65,1568.36 1603.57,1606.40 1603.44,1606.41 C1602.77,1606.41 1600.52,1606.60 1600.08,1606.45 C1599.43,1606.18 1599.40,1589.43 1599.39,1581.99 C1599.40,1562.54 1599.46,1522.95 1599.43,1522.52 C1599.33,1520.33 1599.81,1519.35 1601.21,1519.12 C1601.39,1519.10 1611.18,1519.16 1615.37,1519.14 C1621.23,1519.21 1627.62,1519.78 1629.85,1520.62" fill="none" stroke="rgb(255, 248, 0)" stroke-width="16.01" stroke-opacity="1.00" stroke-linejoin="round"/>
<path d="M1648.28,1552.15 C1649.44,1549.22 1650.41,1544.85 1650.18,1541.22 C1649.87,1536.87 1648.04,1531.29 1646.18,1528.71 C1644.64,1526.65 1641.00,1523.24 1639.09,1522.25 C1637.15,1521.26 1631.34,1519.35 1627.95,1519.24 C1626.79,1519.21 1601.07,1519.53 1600.98,1519.58 C1600.59,1519.81 1601.68,1521.11 1601.72,1523.25 C1602.13,1533.41 1602.32,1566.15 1602.42,1566.18 C1602.54,1566.20 1631.58,1565.51 1631.79,1565.43 C1632.16,1565.28 1632.17,1564.65 1632.54,1564.48 C1633.55,1563.99 1636.44,1563.43 1637.97,1562.35 C1641.80,1559.61 1645.02,1556.12 1646.78,1552.63 C1648.12,1549.88 1649.14,1543.63 1649.25,1543.05 C1649.91,1539.45 1649.74,1537.27 1648.68,1532.76" fill="none" stroke="rgb(255, 248, 0)" stroke-width="16.01" stroke-opacity="1.00" stroke-linejoin="round"/>
<path d="M1630.78,1566.18 C1640.63,1582.89 1654.92,1607.08 1654.99,1607.13 C1654.97,1606.95 1631.33,1566.45 1631.25,1566.50 C1630.61,1567.05 1630.49,1569.37 1631.27,1569.04 C1632.36,1568.74 1631.79,1566.68 1632.64,1565.93 C1632.97,1565.67 1652.09,1599.22 1655.41,1605.02 C1656.33,1606.58 1662.48,1609.67 1666.23,1611.51 C1667.19,1611.98 1668.14,1612.45 1669.09,1612.92" fill="none" stroke="rgb(255, 248, 0)" stroke-width="16.01" stroke-opacity="1.00" stroke-linejoin="round"/>
<path d="M1666.17,1611.32 L1652.95,1612.01" fill="none" stroke="rgb(255, 248, 0)" stroke-width="5.17" stroke-opacity="1.00" stroke-linejoin="round"/>
<path d="M1666.94,1612.68 L1655.70,1612.75" fill="none" stroke="rgb(255, 248, 0)" stroke-width="5.17" stroke-opacity="1.00" stroke-linejoin="round"/>
<path d="M1639.03,1565.72 L1666.62,1611.95" fill="none" stroke="rgb(255, 248, 0)" stroke-width="5.17" stroke-opacity="1.00" stroke-linejoin="round"/>
<path d="M1640.62,1565.50 L1666.38,1611.39" fill="none" stroke="rgb(255, 248, 0)" stroke-width="5.17" stroke-opacity="1.00" stroke-linejoin="round"/>
<path d="M1639.98,1556.71 L1625.70,1564.56" fill="none" stroke="rgb(255, 248, 0)" stroke-width="5.17" stroke-opacity="1.00" stroke-linejoin="round"/>
<path d="M1637.22,1559.60 L1618.52,1563.57" fill="none" stroke="rgb(255, 248, 0)" stroke-width="5.17" stroke-opacity="1.00" stroke-linejoin="round"/>
<path d="M1629.67,1564.72" fill="none" stroke="rgb(255, 248, 0)" stroke-width="6.20" stroke-opacity="1.00" stroke-linejoin="miter"/>
<path d="M1629.41,1562.09 C1631.71,1561.03 1638.35,1557.95 1640.22,1556.04 C1641.39,1554.81 1643.12,1551.85 1643.66,1550.24 C1644.68,1547.01 1644.84,1539.20 1643.95,1535.89 C1643.46,1534.24 1641.84,1531.15 1640.71,1529.81 C1638.91,1527.75 1632.34,1524.14 1630.07,1522.89" fill="none" stroke="rgb(255, 248, 0)" stroke-width="6.20" stroke-opacity="1.00" stroke-linejoin="miter"/>
<path d="M1645.92,1554.20" fill="none" stroke="rgb(255, 248, 0)" stroke-width="6.20" stroke-opacity="1.00" stroke-linejoin="miter"/>
<path d="M1635.44,1567.22 C1639.88,1565.55 1643.74,1563.98 1646.24,1562.32 C1648.94,1560.46 1652.21,1555.54 1653.50,1551.93 C1654.75,1548.30 1655.32,1541.86 1654.94,1538.00 C1654.58,1534.73 1652.90,1528.07 1651.29,1525.58 C1649.95,1523.58 1645.29,1519.49 1642.70,1517.78 C1639.64,1515.85 1633.53,1514.47 1628.90,1514.22 C1623.35,1513.98 1608.11,1514.04 1603.67,1514.06" fill="none" stroke="rgb(255, 248, 0)" stroke-width="6.20" stroke-opacity="1.00" stroke-linejoin="miter"/>
<path d="M1887.16,2120.33 C1886.51,2120.96 1884.76,2122.68 1884.03,2123.36 C1883.32,2124.03 1881.14,2125.98 1880.70,2126.36 C1880.51,2126.51 1880.24,2126.73 1879.87,2127.01" fill="none" stroke="rgb(255, 248, 0)" stroke-width="158.20" stroke-opacity="1.00" stroke-linejoin="round"/>
<path d="M1218.60,1525.43 L1219.11,1564.18" fill="none" stroke="rgb(255, 248, 0)" stroke-width="8.00" stroke-opacity="1.00" stroke-linejoin="round"/>
<path d="M1218.60,1525.18 L1253.66,1526.07" fill="none" stroke="rgb(255, 248, 0)" stroke-width="8.00" stroke-opacity="1.00" stroke-linejoin="round"/>
</g>
<g stroke-linecap="round" transform="translate(40.00, -661.00)" id="ALL_CAPS_2_Copy">
<path d="M691.69,1564.17 C691.98,1565.06 691.72,1565.19 690.71,1564.03 C688.74,1561.76 684.44,1554.53 683.34,1552.15 C682.54,1550.36 681.61,1546.75 681.50,1544.83 C681.36,1541.28 683.93,1533.82 686.25,1531.04 C688.50,1528.45 694.78,1525.31 697.46,1524.83 C700.50,1524.34 706.25,1526.08 709.23,1528.09 C710.68,1529.12 712.92,1531.49 713.97,1533.20 C715.03,1534.98 716.11,1538.59 716.25,1540.59 C716.38,1543.24 714.19,1549.88 712.44,1551.91 C710.30,1554.34 703.71,1558.29 704.02,1558.29 C704.99,1558.28 705.88,1557.67 706.84,1557.56 C707.54,1557.48 692.15,1564.86 691.69,1565.18 C691.14,1565.58 688.54,1568.48 688.90,1568.23 C689.61,1567.75 692.96,1564.62 692.92,1564.48 C692.90,1564.45 685.74,1570.16 682.54,1572.75 C679.12,1575.58 677.13,1578.11 675.12,1581.70 C673.80,1584.16 672.59,1591.59 673.22,1595.10 C673.85,1598.40 675.99,1603.91 678.47,1606.37 C681.04,1608.88 687.01,1612.49 689.95,1613.30 C692.79,1614.05 699.81,1614.31 703.55,1612.96 C706.45,1611.87 711.78,1608.30 716.17,1604.85 C719.39,1602.30 723.64,1596.93 723.31,1596.95 C722.74,1597.11 721.95,1598.67 721.53,1598.61" fill="none" stroke="rgb(255, 248, 0)" stroke-width="16.01" stroke-opacity="1.00" stroke-linejoin="round"/>
<path d="M750.81,1569.81 C745.49,1571.18 740.86,1572.83 738.55,1575.35 C737.88,1576.10 732.32,1584.34 730.38,1587.24 C725.78,1593.97 721.16,1599.07 720.77,1599.65" fill="none" stroke="rgb(255, 248, 0)" stroke-width="16.01" stroke-opacity="1.00" stroke-linejoin="round"/>
<path d="M691.94,1564.26 C691.94,1564.26 692.01,1566.20 692.01,1566.20" fill="none" stroke="rgb(255, 248, 0)" stroke-width="16.01" stroke-opacity="1.00" stroke-linejoin="round"/>
<path d="M690.11,1563.67 C693.51,1567.66 705.43,1583.25 709.54,1587.82 C711.63,1590.08 715.57,1594.28 717.99,1596.62 C719.06,1597.68 720.17,1598.12 722.37,1598.54" fill="none" stroke="rgb(255, 248, 0)" stroke-width="16.01" stroke-opacity="1.00" stroke-linejoin="round"/>
<path d="M723.33,1601.76 C730.39,1609.24 735.86,1614.79 737.14,1615.14 C739.56,1615.42 743.85,1617.02 746.41,1618.01" fill="none" stroke="rgb(255, 248, 0)" stroke-width="16.01" stroke-opacity="1.00" stroke-linejoin="round"/>
<path d="M677.26,1591.92 L683.00,1609.47" fill="none" stroke="rgb(255, 248, 0)" stroke-width="5.17" stroke-opacity="1.00" stroke-linejoin="round"/>
<path d="M678.74,1597.86 L685.25,1609.13" fill="none" stroke="rgb(255, 248, 0)" stroke-width="5.17" stroke-opacity="1.00" stroke-linejoin="round"/>
<path d="M677.80,1592.01 L677.56,1579.44" fill="none" stroke="rgb(255, 248, 0)" stroke-width="5.17" stroke-opacity="1.00" stroke-linejoin="round"/>
<path d="M677.44,1586.74 L682.10,1573.33" fill="none" stroke="rgb(255, 248, 0)" stroke-width="5.17" stroke-opacity="1.00" stroke-linejoin="round"/>
<path d="M712.08,1604.01 L731.42,1583.01" fill="none" stroke="rgb(255, 248, 0)" stroke-width="5.17" stroke-opacity="1.00" stroke-linejoin="round"/>
<path d="M719.42,1595.91 L732.03,1579.69" fill="none" stroke="rgb(255, 248, 0)" stroke-width="5.17" stroke-opacity="1.00" stroke-linejoin="round"/>
<path d="M723.34,1591.48 L734.97,1573.30" fill="none" stroke="rgb(255, 248, 0)" stroke-width="5.17" stroke-opacity="1.00" stroke-linejoin="round"/>
<path d="M729.92,1604.03 L741.01,1615.16" fill="none" stroke="rgb(255, 248, 0)" stroke-width="5.17" stroke-opacity="1.00" stroke-linejoin="round"/>
<path d="M711.12,1585.18 L724.91,1599.24" fill="none" stroke="rgb(255, 248, 0)" stroke-width="5.17" stroke-opacity="1.00" stroke-linejoin="round"/>
</g>
<g stroke-linecap="round" transform="translate(-89.00, -613.00)" id="ssion_Copy">
<path d="M2002.80,1263.28 C2005.22,1262.67 2013.38,1261.55 2015.72,1261.48 C2019.38,1261.40 2025.83,1262.51 2029.27,1263.61 C2033.16,1264.87 2039.24,1267.39 2042.18,1269.17 C2044.92,1270.85 2050.38,1275.04 2052.48,1277.18 C2056.58,1281.44 2064.60,1294.31 2066.19,1298.94 C2067.19,1301.92 2068.25,1308.22 2068.58,1312.16 C2068.83,1315.52 2068.46,1321.45 2067.80,1325.01 C2067.19,1328.15 2064.87,1335.54 2063.66,1338.39 C2062.20,1341.75 2058.16,1347.75 2055.47,1350.90 C2053.01,1353.76 2046.91,1359.16 2044.13,1360.97 C2040.98,1362.98 2033.80,1365.92 2030.42,1366.90 C2026.45,1368.03 2019.62,1368.98 2015.48,1368.99 C2011.92,1368.98 2004.17,1368.10 2000.51,1366.99 C1997.20,1365.96 1989.78,1362.40 1986.89,1360.42 C1984.08,1358.46 1978.81,1353.85 1976.45,1351.13 C1973.98,1348.28 1970.00,1342.70 1968.59,1339.94 C1965.91,1334.59 1962.90,1321.44 1962.80,1315.74 C1962.77,1312.12 1963.54,1306.02 1964.49,1302.32 C1965.34,1299.08 1968.19,1291.97 1969.59,1289.42 C1970.92,1287.04 1975.27,1281.05 1977.70,1278.24 C1980.80,1274.71 1985.26,1270.99 1988.97,1268.88 C1992.12,1267.12 1999.32,1264.16 2002.80,1263.28 Z" fill="none" stroke="rgb(57, 215, 42)" stroke-width="6.47" stroke-opacity="1.00" stroke-linejoin="round"/>
</g>
<g stroke-linecap="round" transform="translate(-68.00, -669.00)" id="ssion_Copy_2">
<path d="M2034.45,1299.14 C2035.89,1299.15 2036.59,1299.95 2038.92,1303.96 C2055.14,1331.59 2077.85,1370.11 2077.95,1370.32 C2078.40,1371.36 2077.71,1372.86 2075.26,1377.11 C2059.23,1405.05 2037.89,1442.30 2037.71,1442.45 C2037.26,1442.80 2036.46,1442.63 2036.13,1443.09 C2035.97,1443.28 2036.50,1443.76 2036.26,1443.82 C2035.43,1443.99 1954.60,1443.56 1954.22,1443.46 C1953.32,1443.18 1932.91,1408.27 1923.96,1392.96 C1919.78,1385.78 1911.43,1371.41 1911.37,1370.79 C1911.36,1370.60 1952.54,1299.69 1952.64,1299.60 C1952.94,1299.35 2024.56,1299.14 2034.45,1299.14 Z" fill="none" stroke="rgb(57, 215, 42)" stroke-width="17.72" stroke-opacity="1.00" stroke-linejoin="round"/>
</g>
<g stroke-linecap="round" transform="translate(-89.00, -613.00)" id="ssion">
<path d="M1553.31,1254.24 C1545.21,1249.65 1532.74,1244.50 1526.78,1242.99 C1520.38,1241.39 1503.40,1239.33 1496.44,1239.76 C1490.28,1240.17 1477.43,1242.61 1470.46,1245.50 C1466.76,1247.05 1460.30,1250.75 1457.45,1253.39 C1454.87,1255.82 1449.87,1262.63 1448.68,1265.47 C1447.59,1268.18 1446.59,1274.27 1447.02,1277.53 C1447.58,1281.39 1449.83,1287.55 1451.77,1290.27 C1454.07,1293.38 1458.66,1297.59 1463.60,1300.63 C1468.27,1303.46 1484.88,1311.03 1492.43,1314.26 C1499.89,1317.29 1516.12,1323.35 1520.08,1325.02 C1527.45,1328.14 1541.27,1336.38 1544.52,1340.12 C1546.07,1341.95 1548.79,1348.01 1549.44,1351.67 C1549.82,1353.92 1550.04,1357.93 1549.81,1359.58 C1549.30,1362.79 1545.46,1369.83 1543.12,1372.28 C1540.71,1374.75 1535.74,1378.67 1532.89,1380.07 C1527.43,1382.67 1510.63,1385.10 1504.31,1385.54 C1497.01,1386.03 1482.17,1385.62 1475.46,1384.85 C1468.05,1383.98 1449.46,1380.00 1445.79,1378.95 C1443.88,1378.46 1442.79,1378.80 1442.44,1380.31 C1442.19,1381.49 1442.39,1382.79 1441.85,1383.87 C1441.64,1384.29 1441.05,1384.69 1440.08,1385.05" fill="none" stroke="rgb(57, 215, 42)" stroke-width="14.65" stroke-opacity="1.00" stroke-linejoin="round"/>
<path d="M1725.52,1254.24 C1717.43,1249.67 1705.04,1244.50 1698.98,1242.99 C1694.01,1241.77 1675.59,1239.41 1671.16,1239.71 C1664.35,1240.18 1649.33,1242.59 1642.40,1245.57 C1639.13,1247.00 1632.51,1250.79 1629.76,1253.18 C1627.29,1255.34 1622.35,1261.39 1620.99,1264.09 C1619.60,1266.92 1618.24,1272.61 1618.48,1276.01 C1618.84,1280.15 1621.08,1286.46 1623.13,1289.23 C1625.27,1292.05 1629.91,1296.79 1632.71,1298.92 C1637.40,1302.45 1646.65,1306.85 1657.22,1311.09 C1664.26,1313.76 1678.93,1319.23 1686.54,1322.04 C1693.88,1324.89 1709.13,1331.79 1713.77,1335.92 C1715.04,1337.08 1720.26,1342.81 1721.92,1346.03 C1723.68,1349.51 1724.51,1355.73 1723.94,1359.58 C1723.42,1362.72 1719.67,1370.12 1717.62,1372.36 C1715.43,1374.69 1708.15,1379.11 1704.66,1380.48 C1697.21,1383.35 1684.33,1385.38 1677.95,1385.57 C1673.53,1385.69 1652.64,1385.07 1647.84,1384.65 C1632.95,1383.32 1617.03,1378.92 1616.82,1378.98 C1616.32,1379.15 1613.67,1382.35 1612.59,1383.49" fill="none" stroke="rgb(57, 215, 42)" stroke-width="14.65" stroke-opacity="1.00" stroke-linejoin="round"/>
<path d="M1790.98,1241.81 C1791.52,1241.46 1900.48,1241.15 1900.78,1241.50 C1901.36,1242.26 1901.59,1247.28 1900.97,1247.80 C1900.54,1248.14 1856.53,1248.34 1856.45,1248.32 C1854.41,1247.83 1853.34,1247.60 1853.22,1247.64 C1852.85,1247.78 1853.17,1359.37 1852.97,1374.53 C1852.98,1376.26 1852.40,1379.22 1852.43,1380.47 C1852.51,1382.14 1853.80,1382.83 1856.12,1382.83 C1856.35,1382.82 1901.04,1382.92 1901.16,1383.01 C1901.71,1383.43 1901.53,1388.27 1901.03,1388.93 C1900.73,1389.28 1854.58,1389.79 1836.07,1389.85 C1818.71,1389.64 1790.82,1389.04 1790.72,1388.93 C1790.28,1388.37 1790.12,1383.05 1790.58,1382.52 C1790.90,1382.18 1838.71,1382.84 1838.77,1382.78 C1838.77,1382.78 1838.62,1288.13 1838.71,1253.73 C1838.70,1251.54 1838.79,1248.85 1838.74,1248.65 C1838.55,1248.02 1834.48,1248.16 1828.26,1248.27 C1818.66,1248.37 1793.92,1248.36 1793.55,1248.39 C1791.21,1248.49 1790.63,1248.02 1790.39,1245.95 C1790.26,1244.07 1790.45,1242.18 1790.98,1241.81 Z" fill="none" stroke="rgb(57, 215, 42)" stroke-width="14.65" stroke-opacity="1.00" stroke-linejoin="round"/>
<path d="M2234.94,1371.90 C2234.73,1369.24 2234.46,1245.48 2234.42,1245.06 C2234.30,1243.60 2234.30,1242.79 2234.44,1242.63 C2235.17,1241.84 2247.78,1241.62 2248.04,1241.81 C2248.61,1242.23 2248.56,1282.33 2248.56,1299.63 C2248.63,1336.27 2248.69,1384.06 2248.70,1384.47 C2248.72,1386.66 2248.54,1388.87 2247.85,1389.27 C2247.67,1389.37 2232.52,1389.46 2231.72,1389.50 C2228.74,1389.62 2226.66,1389.33 2225.67,1388.56 C2225.52,1388.44 2183.42,1306.89 2169.60,1280.28 C2161.43,1264.46 2158.29,1259.74 2157.81,1259.56 C2156.79,1259.20 2150.93,1259.60 2150.73,1259.56 C2149.27,1259.32 2145.13,1254.33 2144.35,1253.37" fill="none" stroke="rgb(57, 215, 42)" stroke-width="14.65" stroke-opacity="1.00" stroke-linejoin="round"/>
<path d="M2146.66,1260.05 C2146.64,1290.75 2146.46,1385.66 2146.49,1386.08 C2146.62,1388.23 2146.01,1389.24 2144.35,1389.41 C2143.44,1389.48 2132.94,1389.13 2132.45,1388.60 C2132.36,1388.50 2132.47,1293.84 2132.51,1257.94 C2132.47,1246.90 2132.44,1242.23 2133.04,1241.81 C2133.05,1241.80 2154.37,1242.10 2154.91,1242.56 C2154.95,1242.59 2199.77,1328.73 2215.66,1359.31 C2219.63,1366.99 2220.75,1370.10 2222.68,1371.43 C2223.76,1372.16 2238.21,1379.22 2239.45,1379.82" fill="none" stroke="rgb(57, 215, 42)" stroke-width="14.65" stroke-opacity="1.00" stroke-linejoin="round"/>
<path d="M1441.85,1383.87 C1451.78,1386.46 1461.04,1388.62 1469.56,1389.79 C1477.70,1390.89 1493.27,1391.86 1500.30,1391.34 C1507.67,1390.77 1524.31,1388.31 1529.13,1386.82 C1532.29,1385.83 1539.37,1382.71 1542.78,1380.84 C1546.00,1379.05 1551.45,1374.61 1553.54,1372.01 C1555.58,1369.42 1558.10,1363.17 1558.64,1359.85 C1559.15,1356.52 1558.14,1349.53 1556.93,1346.20 C1555.71,1342.98 1551.71,1337.85 1548.84,1335.39 C1544.33,1331.59 1532.19,1325.16 1523.23,1321.42 C1502.71,1313.27 1474.78,1301.09 1468.39,1296.85 C1464.77,1294.41 1459.99,1289.49 1458.72,1287.27 C1457.15,1284.43 1455.50,1277.05 1455.54,1273.90 C1455.63,1270.30 1457.17,1264.78 1459.04,1261.36 C1460.76,1258.29 1465.78,1253.76 1468.98,1251.87 C1473.62,1249.19 1486.80,1245.35 1493.29,1244.63 C1499.48,1243.96 1514.34,1244.87 1521.82,1246.83 C1525.50,1247.82 1532.12,1250.10 1536.85,1251.88 C1540.98,1253.47 1548.89,1257.93 1549.42,1258.04" fill="none" stroke="rgb(57, 215, 42)" stroke-width="14.65" stroke-opacity="1.00" stroke-linejoin="round"/>
<path d="M1614.06,1383.87 C1623.99,1386.46 1633.25,1388.62 1641.77,1389.79 C1649.90,1390.89 1665.47,1391.86 1672.51,1391.34 C1679.81,1390.78 1696.44,1388.34 1701.34,1386.82 C1704.56,1385.81 1711.82,1382.62 1715.07,1380.82 C1718.27,1379.01 1722.76,1375.23 1725.04,1372.48 C1727.01,1370.03 1729.92,1364.09 1730.61,1361.45 C1731.09,1359.48 1731.57,1355.32 1731.42,1353.68 C1731.09,1350.56 1728.11,1343.52 1726.33,1340.73 C1725.05,1338.77 1721.64,1335.45 1718.03,1332.30 C1712.83,1327.92 1701.98,1322.91 1693.39,1319.47 C1686.34,1316.70 1671.47,1310.75 1663.64,1307.57 C1652.65,1303.00 1642.91,1298.55 1638.16,1295.19 C1635.09,1292.99 1631.12,1289.23 1629.50,1286.57 C1627.88,1283.84 1625.86,1277.84 1626.10,1274.32 C1626.40,1270.66 1628.83,1264.66 1631.17,1261.61 C1633.17,1259.07 1638.56,1254.50 1640.85,1252.90 C1644.14,1250.64 1649.43,1248.39 1653.36,1247.51 C1661.75,1245.70 1675.19,1244.27 1682.28,1245.20 C1688.82,1246.10 1707.45,1251.17 1711.96,1253.05 C1714.76,1254.23 1717.42,1255.66 1719.17,1256.89 C1720.62,1257.91 1720.96,1257.66 1720.78,1256.26" fill="none" stroke="rgb(57, 215, 42)" stroke-width="14.65" stroke-opacity="1.00" stroke-linejoin="round"/>
<path d="M1549.76,1253.62 C1551.25,1254.40 1551.96,1254.85 1551.90,1254.97 C1551.44,1255.75 1550.09,1254.87 1549.19,1254.88 C1548.96,1254.88 1550.01,1255.08 1549.80,1255.16 C1548.42,1255.26 1549.24,1254.50 1551.45,1254.16 C1552.70,1253.97 1553.33,1254.00 1553.31,1254.24 C1553.30,1254.58 1550.70,1256.42 1548.60,1257.79" fill="none" stroke="rgb(57, 215, 42)" stroke-width="14.65" stroke-opacity="1.00" stroke-linejoin="round"/>
<path d="M1718.63,1254.55 C1718.97,1254.51 1719.98,1254.44 1719.64,1254.35 C1718.73,1254.08 1715.11,1253.88 1715.15,1253.73 C1715.19,1253.60 1723.04,1253.21 1723.21,1253.40 C1723.48,1253.74 1722.64,1254.58 1723.06,1254.67 C1723.86,1254.90 1724.79,1253.83 1725.52,1254.24 C1725.67,1254.32 1722.46,1256.62 1721.30,1257.45" fill="none" stroke="rgb(57, 215, 42)" stroke-width="14.65" stroke-opacity="1.00" stroke-linejoin="round"/>
</g>
<g stroke-linecap="round" transform="translate(-1.00, -613.00)" id="transm">
<path d="M1044.93,1254.24 C1036.93,1249.68 1024.28,1244.58 1018.39,1242.99 C1012.66,1241.47 997.91,1239.56 990.45,1239.82 C983.62,1240.08 968.81,1242.62 961.89,1245.48 C958.36,1246.97 951.91,1250.76 949.09,1253.45 C946.90,1255.58 941.26,1262.97 939.93,1265.94 C938.57,1269.10 938.40,1275.17 939.26,1279.71 C940.14,1284.09 942.70,1289.55 945.17,1292.73 C947.49,1295.66 952.91,1300.12 955.87,1301.92 C960.87,1304.91 972.05,1309.88 982.61,1314.06 C997.30,1319.58 1021.09,1328.82 1025.87,1331.44 C1029.35,1333.37 1034.35,1338.46 1035.62,1340.21 C1037.45,1342.76 1040.83,1349.84 1041.29,1351.82 C1041.93,1354.71 1041.35,1361.12 1039.98,1364.47 C1038.29,1368.46 1035.01,1372.97 1032.23,1375.45 C1029.59,1377.75 1024.69,1380.58 1021.25,1381.78 C1016.29,1383.45 997.17,1386.12 991.14,1386.37 C983.55,1386.66 968.19,1385.32 960.00,1383.87 C953.59,1382.71 937.54,1378.98 937.41,1378.94 C935.49,1378.46 934.40,1378.80 934.05,1380.31 C933.81,1381.49 934.00,1382.79 933.46,1383.87 C933.25,1384.29 932.66,1384.69 931.69,1385.05" fill="none" stroke="rgb(57, 215, 42)" stroke-width="14.65" stroke-opacity="1.00" stroke-linejoin="round"/>
<path d="M236.38,1241.81 C236.48,1241.77 330.12,1241.80 363.44,1241.81 C365.66,1241.82 371.44,1241.95 372.02,1242.40 C372.27,1242.60 372.05,1246.33 372.02,1247.13 C371.91,1248.15 371.22,1248.38 369.02,1248.35 C368.60,1248.34 314.13,1248.94 313.69,1248.92 C311.48,1248.83 310.79,1249.22 310.69,1250.68 C310.68,1250.84 310.60,1347.50 310.49,1381.53 C310.49,1386.41 310.60,1389.41 309.08,1389.79 C308.90,1389.83 303.87,1389.46 301.65,1389.50 C300.63,1389.51 297.74,1389.40 297.54,1388.64 C297.10,1386.46 297.14,1295.17 297.16,1259.55 C297.15,1256.69 297.28,1249.12 297.12,1248.91 C296.66,1248.34 276.82,1248.40 267.84,1248.40 C258.78,1248.36 238.56,1248.46 237.58,1248.41 C236.14,1248.32 235.61,1247.40 235.66,1245.41 C235.72,1244.60 235.92,1241.96 236.38,1241.81 Z" fill="none" stroke="rgb(57, 215, 42)" stroke-width="14.65" stroke-opacity="1.00" stroke-linejoin="round"/>
<path d="M539.51,1388.60 C530.79,1375.15 517.14,1354.15 512.20,1346.60 C510.39,1343.85 505.54,1337.31 504.91,1336.42 C503.90,1334.95 504.70,1323.53 504.71,1323.49 C504.88,1323.13 506.33,1323.23 508.23,1322.36 C511.22,1321.05 519.86,1316.70 522.41,1315.20 C526.13,1312.99 530.75,1309.04 532.35,1306.82 C533.92,1304.59 536.42,1298.22 537.17,1294.93 C537.60,1293.00 538.56,1284.92 538.40,1281.84 C538.19,1278.26 535.90,1270.65 534.10,1266.90 C532.10,1262.82 527.92,1257.39 524.81,1254.89 C522.09,1252.75 515.13,1248.98 511.76,1247.72 C504.35,1245.02 491.19,1242.30 483.44,1241.90 C480.22,1241.74 422.96,1241.93 421.52,1241.83 C419.52,1241.74 417.41,1242.23 416.84,1243.16 C416.79,1243.25 416.88,1339.96 416.90,1375.89 C416.87,1381.36 416.93,1388.85 417.43,1389.19 C417.71,1389.37 430.23,1389.22 430.40,1388.98 C430.44,1388.93 430.62,1331.25 430.40,1330.59 C430.15,1329.77 429.10,1329.03 429.39,1328.22 C429.44,1328.11 479.04,1328.24 485.51,1328.15 C487.43,1328.19 488.75,1326.89 489.38,1327.04 C490.67,1327.39 495.47,1335.03 496.32,1336.36 C505.91,1351.49 519.80,1373.32 524.09,1380.01 C524.95,1381.33 529.06,1387.68 530.39,1388.24 C531.21,1388.57 536.92,1389.03 538.86,1389.44 C540.74,1389.90 541.74,1390.21 541.87,1390.38 C542.21,1390.82 540.42,1394.19 539.78,1395.40" fill="none" stroke="rgb(57, 215, 42)" stroke-width="14.65" stroke-opacity="1.00" stroke-linejoin="round"/>
<path d="M580.20,1389.19 C590.50,1362.42 614.42,1300.38 628.04,1265.10 C630.43,1258.98 636.66,1243.09 636.69,1243.03 C637.36,1241.89 638.20,1241.64 640.36,1241.81 C640.68,1241.83 656.04,1241.77 656.32,1241.76 C658.84,1241.63 660.43,1242.37 661.59,1244.17 C661.79,1244.51 696.58,1334.81 710.24,1370.13 C712.53,1376.05 716.22,1385.58 717.61,1389.19" fill="none" stroke="rgb(57, 215, 42)" stroke-width="14.65" stroke-opacity="1.00" stroke-linejoin="round"/>
<path d="M865.47,1371.29 C865.66,1369.18 865.79,1245.63 865.76,1245.20 C865.63,1243.03 866.24,1242.02 868.00,1241.81 C869.07,1241.70 873.50,1241.96 875.57,1241.81 C878.33,1241.67 879.40,1242.21 879.67,1243.86 C879.71,1244.16 879.35,1339.19 879.29,1375.17 C879.31,1386.28 879.37,1389.50 878.47,1389.57 C877.54,1389.62 858.10,1389.97 857.32,1389.90 C857.29,1389.89 815.55,1309.91 801.44,1282.72 C797.16,1274.42 791.66,1263.79 789.81,1261.09 C788.88,1259.73 787.46,1259.26 784.88,1259.46 C781.79,1259.68 780.30,1259.31 779.13,1257.74 C778.55,1256.95 776.39,1253.39 775.72,1252.27" fill="none" stroke="rgb(57, 215, 42)" stroke-width="14.65" stroke-opacity="1.00" stroke-linejoin="round"/>
<path d="M776.47,1260.34 C776.45,1292.20 776.59,1388.01 776.59,1388.01 C776.52,1389.05 775.96,1389.20 773.06,1389.09 C770.85,1388.96 765.97,1389.15 765.57,1389.02 C763.85,1388.44 762.99,1386.74 763.14,1384.62 C763.18,1384.21 763.50,1286.39 763.65,1251.79 C763.66,1246.39 763.56,1242.68 764.88,1242.06 C765.14,1241.95 783.92,1241.73 784.99,1242.60 C785.07,1242.67 830.27,1328.74 846.25,1359.29 C850.21,1367.00 851.31,1370.08 853.26,1371.43 C854.32,1372.16 868.34,1379.09 869.54,1379.69" fill="none" stroke="rgb(57, 215, 42)" stroke-width="14.65" stroke-opacity="1.00" stroke-linejoin="round"/>
<path d="M1095.64,1237.07 C1095.76,1236.95 1106.00,1237.01 1110.40,1237.10 C1115.37,1237.18 1120.93,1236.82 1121.59,1237.66 C1122.69,1239.15 1149.77,1307.47 1149.90,1307.51 C1149.96,1307.52 1155.87,1307.42 1158.19,1307.56 C1161.28,1307.70 1162.51,1307.11 1163.47,1305.14 C1163.56,1304.93 1188.98,1240.30 1189.11,1239.90 C1189.79,1237.86 1190.58,1237.15 1192.36,1237.07 C1193.35,1237.05 1214.99,1237.04 1215.95,1237.07 C1216.96,1237.12 1217.18,1237.85 1217.12,1239.94 C1217.06,1241.09 1217.04,1339.11 1216.96,1374.32 C1216.84,1382.30 1216.07,1388.85 1215.94,1388.99 C1215.19,1389.74 1211.45,1389.78 1210.37,1389.77 C1209.25,1389.73 1205.25,1389.49 1204.59,1388.66 C1203.76,1387.52 1203.85,1293.45 1203.85,1259.62 C1203.93,1249.86 1203.98,1248.42 1203.57,1248.32 C1202.47,1248.08 1197.66,1248.47 1195.26,1248.33 C1192.11,1248.21 1190.84,1248.63 1190.00,1250.09 C1189.88,1250.33 1162.51,1316.17 1162.29,1316.39 C1161.55,1317.04 1155.19,1316.58 1151.43,1316.83 C1150.07,1316.89 1149.55,1316.38 1148.82,1314.41 C1148.69,1314.02 1126.26,1259.82 1123.96,1255.23 C1123.53,1254.37 1120.52,1248.34 1120.41,1248.32 C1120.39,1248.31 1108.92,1248.14 1108.62,1248.32 C1108.05,1248.69 1108.12,1288.71 1108.12,1306.06 C1108.07,1340.67 1108.10,1387.16 1108.08,1387.56 C1107.92,1389.67 1106.58,1390.72 1104.19,1390.88 C1100.97,1390.98 1097.56,1391.11 1097.27,1391.07 C1095.66,1390.79 1095.04,1389.65 1095.11,1387.52 C1095.13,1387.13 1094.88,1290.62 1095.02,1255.57 C1095.03,1252.70 1095.33,1237.42 1095.64,1237.07 Z" fill="none" stroke="rgb(57, 215, 42)" stroke-width="14.65" stroke-opacity="1.00" stroke-linejoin="round"/>
<path d="M933.46,1383.87 C943.13,1386.50 952.01,1388.57 960.53,1389.54 C964.95,1390.04 985.22,1391.28 990.94,1391.13 C998.16,1390.92 1015.58,1388.45 1020.75,1386.82 C1024.07,1385.76 1030.90,1382.69 1034.62,1380.69 C1038.10,1378.77 1042.52,1374.88 1044.40,1372.04 C1045.51,1370.30 1048.02,1364.57 1048.70,1361.03 C1049.32,1357.63 1048.92,1352.68 1048.21,1349.88 C1047.28,1346.46 1045.13,1342.38 1042.31,1338.81 C1040.06,1335.99 1035.13,1331.12 1031.74,1329.06 C1026.60,1325.99 986.15,1310.30 977.75,1306.63 C970.70,1303.49 957.62,1295.59 953.86,1291.62 C951.35,1288.91 948.16,1281.62 947.68,1278.36 C947.27,1275.30 948.35,1268.06 949.85,1264.78 C951.57,1261.14 955.32,1255.95 957.75,1253.91 C960.14,1251.96 966.62,1248.89 969.64,1247.90 C975.19,1246.10 989.37,1244.78 996.50,1245.01 C1003.83,1245.27 1016.66,1247.89 1025.20,1250.78 C1030.10,1252.52 1035.55,1254.85 1038.44,1256.77 C1039.85,1257.72 1040.52,1257.84 1041.15,1257.43" fill="none" stroke="rgb(57, 215, 42)" stroke-width="14.65" stroke-opacity="1.00" stroke-linejoin="round"/>
<path d="M642.71,1247.13 C643.82,1247.09 648.76,1247.26 651.00,1247.11 C654.09,1246.94 655.34,1247.54 656.28,1249.50 C656.38,1249.73 672.87,1293.79 679.64,1311.84 C681.96,1318.39 685.67,1328.87 686.30,1332.82 C686.58,1334.66 686.45,1338.82 686.49,1339.81 C686.50,1341.68 685.90,1342.30 684.00,1342.43 C683.74,1342.44 612.27,1342.37 612.05,1342.23 C611.81,1342.06 610.98,1332.85 611.46,1330.59 C612.06,1327.79 642.39,1247.15 642.71,1247.13 Z" fill="none" stroke="rgb(57, 215, 42)" stroke-width="14.65" stroke-opacity="1.00" stroke-linejoin="round"/>
<path d="M430.87,1248.82 C430.95,1248.75 486.53,1248.04 491.15,1248.32 C498.27,1248.77 502.68,1249.87 506.58,1251.46 C509.31,1252.61 515.92,1256.58 518.28,1258.97 C519.98,1260.74 523.77,1266.74 524.76,1270.81 C525.67,1274.71 526.02,1293.89 525.34,1297.95 C524.86,1300.61 521.47,1307.47 519.32,1309.66 C516.70,1312.26 513.19,1314.67 509.62,1316.63 C506.35,1318.32 497.49,1319.76 492.92,1319.95 C482.20,1320.38 443.48,1320.42 432.67,1320.82 C431.46,1320.81 431.07,1319.96 431.08,1317.78 C431.09,1317.42 430.57,1256.70 430.46,1253.77 C430.40,1251.30 430.46,1249.21 430.87,1248.82 Z" fill="none" stroke="rgb(57, 215, 42)" stroke-width="14.65" stroke-opacity="1.00" stroke-linejoin="round"/>
<path d="M1041.52,1255.17 C1040.93,1254.51 1040.75,1254.10 1041.00,1253.92 C1041.86,1253.32 1042.81,1253.19 1043.86,1253.55 C1044.22,1253.67 1043.14,1254.05 1043.14,1254.43 C1043.10,1254.98 1045.12,1254.15 1044.93,1254.24 C1044.67,1254.35 1041.41,1256.46 1040.23,1257.23" fill="none" stroke="rgb(57, 215, 42)" stroke-width="14.65" stroke-opacity="1.00" stroke-linejoin="round"/>
<path d="M580.04,1389.72 C580.34,1389.69 580.62,1389.65 580.87,1389.60 C583.18,1389.10 584.95,1388.81 586.76,1388.74 C589.68,1388.59 590.35,1388.29 590.82,1386.82 C591.03,1386.07 603.10,1353.41 603.79,1351.31 C604.51,1349.25 605.23,1348.78 607.45,1348.92 C607.89,1348.95 692.19,1348.90 692.25,1348.94 C692.83,1349.36 707.67,1386.37 707.78,1386.95 C708.10,1388.37 708.54,1388.67 710.70,1388.90 C711.58,1388.99 715.18,1389.60 716.36,1389.85 C716.70,1389.92 717.26,1390.04 718.04,1390.23" fill="none" stroke="rgb(57, 215, 42)" stroke-width="14.65" stroke-opacity="1.00" stroke-linejoin="round"/>
</g>
<g stroke-linecap="round" transform="translate(-45.00, -609.00)" id="arrow_Copy">
<path d="M1320.55,1116.07 L1321.42,1113.58 L1326.69,1098.68 L1334.38,1076.95 L1334.96,1075.29 L1335.60,1077.18 L1341.50,1094.78 L1348.15,1114.63 L1348.69,1116.24 L1347.18,1116.23 L1336.42,1116.17 L1322.23,1116.08 L1320.55,1116.07 Z" fill="none" stroke="rgb(0, 0, 0)" stroke-width="9.93" stroke-opacity="1.00" stroke-linejoin="miter"/>
<path d="M1333.07,1111.60 L1335.19,1093.97" fill="none" stroke="rgb(0, 0, 0)" stroke-width="9.93" stroke-opacity="1.00" stroke-linejoin="round"/>
<path d="M1338.36,1111.38 L1335.40,1096.31" fill="none" stroke="rgb(0, 0, 0)" stroke-width="9.93" stroke-opacity="1.00" stroke-linejoin="round"/>
<path d="M1329.48,1110.32 L1332.65,1099.28" fill="none" stroke="rgb(0, 0, 0)" stroke-width="9.93" stroke-opacity="1.00" stroke-linejoin="round"/>
<path d="M1341.75,1110.75 L1334.55,1101.40" fill="none" stroke="rgb(0, 0, 0)" stroke-width="9.93" stroke-opacity="1.00" stroke-linejoin="round"/>
</g>
<g stroke-linecap="round" transform="translate(-45.00, -609.00)" id="arrow">
<path d="M1402.81,1151.75 C1371.60,1151.63 1307.61,1151.70 1274.84,1151.89 C1272.33,1151.91 1268.79,1151.93 1267.74,1151.94" fill="none" stroke="rgb(255, 248, 0)" stroke-width="14.65" stroke-opacity="1.00" stroke-linejoin="round"/>
<path d="M1327.22,1385.14 C1327.11,1381.65 1327.14,1295.43 1327.15,1259.33 C1327.14,1222.13 1327.13,1171.01 1327.13,1157.07" fill="none" stroke="rgb(255, 248, 0)" stroke-width="14.65" stroke-opacity="1.00" stroke-linejoin="round"/>
<path d="M1273.01,1143.53 C1273.01,1143.53 1397.87,1143.61 1397.87,1143.61" fill="none" stroke="rgb(255, 248, 0)" stroke-width="14.65" stroke-opacity="1.00" stroke-linejoin="round"/>
<path d="M1340.32,1157.19 C1340.43,1184.99 1340.67,1248.73 1340.80,1284.67 C1340.90,1316.82 1340.77,1383.08 1340.79,1384.75 C1340.77,1384.96 1329.25,1385.12 1328.04,1385.14" fill="none" stroke="rgb(255, 248, 0)" stroke-width="14.65" stroke-opacity="1.00" stroke-linejoin="round"/>
<path d="M1266.61,1149.05 C1277.58,1122.16 1302.32,1061.45 1316.08,1027.65 C1318.32,1022.11 1322.26,1012.25 1322.40,1011.96 C1323.39,1010.03 1324.49,1009.43 1326.94,1009.53 C1327.27,1009.55 1343.45,1009.56 1343.82,1009.54 C1346.27,1009.45 1347.33,1009.99 1348.24,1011.78 C1348.37,1012.05 1383.99,1100.47 1397.77,1134.50 C1400.00,1140.02 1403.16,1147.83 1404.09,1150.11" fill="none" stroke="rgb(255, 248, 0)" stroke-width="14.65" stroke-opacity="1.00" stroke-linejoin="round"/>
<path d="M1290.89,1111.94 C1296.44,1098.56 1327.66,1017.55 1327.71,1017.29 C1327.86,1016.56 1328.38,1014.11 1329.48,1013.74 C1329.76,1013.65 1340.98,1013.56 1341.27,1013.74 C1342.37,1014.46 1359.00,1057.55 1365.24,1073.77 C1370.49,1087.43 1377.49,1105.77 1379.25,1110.45" fill="none" stroke="rgb(255, 248, 0)" stroke-width="14.65" stroke-opacity="1.00" stroke-linejoin="round"/>
<path d="M1266.94,1149.90 C1267.32,1150.00 1267.54,1150.05 1267.59,1150.04 C1267.78,1150.04 1269.58,1149.77 1271.62,1149.88 C1274.83,1149.99 1276.20,1149.58 1276.99,1148.10 C1277.11,1147.86 1290.42,1113.81 1291.45,1110.75" fill="none" stroke="rgb(255, 248, 0)" stroke-width="14.65" stroke-opacity="1.00" stroke-linejoin="round"/>
<path d="M1378.64,1108.13 C1384.15,1122.49 1394.20,1148.57 1395.53,1149.88 C1395.95,1150.28 1399.31,1150.57 1399.53,1150.52 C1400.25,1150.36 1400.94,1149.80 1401.66,1149.96 C1402.02,1150.04 1402.66,1150.51 1403.59,1151.36" fill="none" stroke="rgb(255, 248, 0)" stroke-width="14.65" stroke-opacity="1.00" stroke-linejoin="round"/>
</g>
<g stroke-linecap="round" transform="translate(-53.00, -607.00)" id="ELEVATED_2">
<path d="M1228.54,1010.28 C1230.29,1010.22 1231.25,1010.15 1231.40,1010.07 C1231.99,1009.74 1229.06,1009.42 1226.86,1009.58 C1224.00,1009.84 1221.03,1009.95 1220.81,1010.14 C1220.74,1010.21 1187.87,1097.20 1174.93,1130.93 C1172.92,1136.26 1169.17,1146.03 1168.89,1146.21 C1168.56,1146.40 1165.23,1146.39 1160.62,1146.47 C1157.93,1146.46 1155.66,1145.75 1155.12,1144.64 C1154.78,1143.84 1154.66,1141.69 1153.89,1139.80 C1142.23,1109.36 1119.11,1049.27 1107.63,1019.61 C1105.50,1014.35 1104.00,1010.15 1102.84,1009.48 C1102.48,1009.28 1093.61,1009.38 1093.48,1009.49 C1093.40,1009.57 1128.14,1095.51 1142.04,1130.07 C1143.26,1133.14 1145.59,1138.96 1146.68,1141.72 C1148.61,1146.56 1149.74,1149.53 1150.76,1149.69 C1150.90,1149.71 1172.85,1149.65 1173.80,1149.62 C1174.95,1149.55 1175.52,1148.84 1176.24,1146.90 C1176.46,1146.27 1213.78,1054.38 1226.99,1021.59 C1228.91,1016.58 1231.12,1010.81 1231.40,1010.07" fill="none" stroke="rgb(57, 215, 42)" stroke-width="14.65" stroke-opacity="1.00" stroke-linejoin="round"/>
<path d="M587.98,1009.48 C588.20,1009.44 708.81,1009.14 709.04,1009.37 C709.46,1009.81 709.61,1014.70 709.20,1015.07 C708.88,1015.35 604.47,1015.43 604.02,1015.40 C601.78,1015.29 600.91,1015.73 600.74,1017.23 C600.72,1017.47 600.91,1075.71 600.96,1075.77 C601.42,1076.37 620.02,1076.17 628.06,1076.10 C647.77,1076.08 683.21,1076.29 683.31,1076.42 C683.52,1076.70 683.82,1082.32 683.63,1082.50 C683.30,1082.78 600.98,1082.85 600.96,1082.88 C600.96,1082.88 600.89,1143.16 600.96,1143.25 C601.43,1143.84 618.59,1143.74 625.69,1143.71 C662.23,1143.82 709.80,1144.14 709.81,1144.18 C710.02,1145.25 708.69,1146.14 708.63,1147.23 C708.56,1148.04 709.76,1148.81 709.42,1149.55 C709.30,1149.75 621.60,1149.77 598.16,1149.76 C596.08,1149.77 588.02,1149.74 587.29,1148.85 C587.14,1148.66 587.18,1053.05 587.21,1018.28 C587.19,1012.94 587.14,1009.68 587.98,1009.48 Z" fill="none" stroke="rgb(57, 215, 42)" stroke-width="14.65" stroke-opacity="1.00" stroke-linejoin="round"/>
<path d="M760.99,1009.05 C761.20,1008.99 772.08,1009.03 772.89,1009.16 C773.80,1009.33 773.75,1012.43 773.75,1017.76 C773.75,1052.54 773.75,1110.13 773.75,1132.94 C773.75,1135.43 773.84,1142.94 774.86,1143.52 C775.20,1143.70 884.11,1143.13 884.23,1143.31 C884.40,1143.56 884.34,1149.53 884.20,1149.71 C884.14,1149.77 760.87,1149.83 760.78,1149.76 C760.21,1149.30 760.31,1109.33 760.33,1092.01 C760.27,1056.56 760.17,1010.63 760.19,1010.40 C760.30,1009.65 760.56,1009.20 760.99,1009.05 Z" fill="none" stroke="rgb(57, 215, 42)" stroke-width="14.65" stroke-opacity="1.00" stroke-linejoin="round"/>
<path d="M934.17,1009.48 C934.79,1009.20 1055.69,1009.31 1055.89,1009.48 C1056.06,1009.65 1055.83,1015.04 1055.64,1015.28 C1055.34,1015.64 947.77,1015.37 947.73,1015.40 C947.16,1015.84 947.23,1035.43 947.23,1044.21 C947.19,1053.72 947.16,1075.64 947.18,1075.67 C947.70,1076.37 965.27,1076.15 972.81,1076.08 C991.93,1075.99 1029.80,1076.06 1029.87,1076.13 C1030.14,1076.42 1030.18,1082.16 1029.91,1082.53 C1029.55,1082.98 947.17,1082.85 947.14,1082.88 C947.14,1082.88 947.08,1143.16 947.14,1143.25 C947.61,1143.84 964.92,1143.76 972.10,1143.74 C1008.88,1143.90 1056.55,1144.27 1056.58,1144.31 C1056.74,1144.56 1052.86,1146.87 1053.08,1147.33 C1053.57,1148.44 1055.32,1148.52 1055.99,1149.53 C1056.10,1149.70 968.58,1149.57 943.59,1149.52 C938.17,1149.52 934.62,1149.64 934.00,1148.37 C933.89,1148.14 933.84,1054.14 933.73,1021.41 C933.68,1018.88 933.26,1012.26 933.30,1011.28 C933.36,1010.34 933.65,1009.74 934.17,1009.48 Z" fill="none" stroke="rgb(57, 215, 42)" stroke-width="14.65" stroke-opacity="1.00" stroke-linejoin="round"/>
<path d="M1428.07,1010.07 C1428.31,1009.83 1524.71,1009.85 1558.93,1010.00 C1561.14,1010.07 1563.79,1009.92 1564.02,1010.07 C1564.58,1010.46 1564.56,1015.30 1564.02,1015.99 C1563.75,1016.31 1503.81,1016.39 1503.67,1016.58 C1503.38,1016.99 1503.41,1110.95 1503.32,1144.77 C1503.27,1146.94 1503.42,1149.54 1503.28,1149.76 C1502.85,1150.35 1498.63,1150.13 1497.49,1150.14 C1496.27,1150.13 1490.95,1150.37 1490.24,1149.86 C1489.84,1149.56 1489.72,1056.55 1489.73,1024.36 C1489.80,1020.30 1490.07,1016.50 1489.12,1015.99 C1488.18,1015.53 1428.45,1015.99 1428.07,1015.65 C1427.68,1015.28 1427.67,1010.51 1428.07,1010.07 Z" fill="none" stroke="rgb(57, 215, 42)" stroke-width="14.65" stroke-opacity="1.00" stroke-linejoin="round"/>
<path d="M1613.95,1009.09 C1614.64,1008.75 1733.74,1009.22 1734.07,1009.48 C1734.29,1009.68 1732.30,1012.47 1732.30,1013.03 C1732.27,1013.63 1734.10,1016.40 1733.87,1016.58 C1733.36,1016.94 1626.98,1016.73 1626.93,1016.77 C1626.33,1017.33 1626.61,1036.79 1626.70,1045.35 C1626.76,1054.60 1626.92,1075.89 1626.93,1075.90 C1626.94,1075.91 1709.50,1076.61 1709.57,1076.67 C1710.05,1077.15 1709.61,1082.40 1709.04,1083.03 C1708.60,1083.49 1626.56,1083.44 1626.53,1083.47 C1626.53,1083.47 1626.47,1143.75 1626.53,1143.84 C1626.98,1144.41 1670.71,1144.32 1690.25,1144.32 C1706.94,1144.40 1734.32,1144.59 1734.33,1144.62 C1734.66,1145.23 1730.30,1146.05 1730.29,1146.61 C1730.26,1147.06 1733.96,1149.95 1733.87,1150.16 C1733.71,1150.50 1615.21,1150.13 1614.89,1150.02 C1613.63,1149.55 1612.98,1148.08 1613.10,1146.38 C1613.20,1145.22 1613.14,1049.34 1613.02,1017.14 C1613.02,1015.31 1612.73,1011.57 1612.76,1011.27 C1612.90,1010.17 1613.30,1009.44 1613.95,1009.09 Z" fill="none" stroke="rgb(57, 215, 42)" stroke-width="14.65" stroke-opacity="1.00" stroke-linejoin="round"/>
<path d="M1782.82,1010.07 C1783.05,1009.95 1803.76,1009.82 1812.86,1009.85 C1822.04,1010.05 1841.36,1011.02 1848.40,1012.10 C1853.77,1012.94 1871.04,1018.15 1875.69,1020.33 C1879.33,1022.05 1884.01,1025.05 1887.88,1028.06 C1891.60,1030.99 1895.71,1035.26 1898.45,1039.04 C1901.11,1042.74 1904.31,1047.83 1905.73,1050.67 C1907.21,1053.67 1908.77,1059.25 1909.73,1063.92 C1910.48,1067.95 1911.38,1074.71 1911.53,1078.61 C1911.78,1085.84 1908.94,1102.33 1907.26,1107.74 C1906.05,1111.53 1903.54,1116.56 1901.58,1119.33 C1898.67,1123.38 1886.88,1134.48 1881.94,1137.35 C1876.43,1140.52 1864.85,1144.91 1857.87,1146.86 C1851.31,1148.63 1837.85,1149.81 1826.71,1150.14 C1809.40,1150.15 1786.25,1150.15 1786.18,1150.15 C1784.11,1150.23 1782.70,1149.79 1782.29,1148.76 C1782.21,1148.51 1782.36,1054.84 1782.37,1021.84 C1782.33,1019.36 1781.91,1012.87 1781.95,1011.89 C1782.01,1010.95 1782.30,1010.35 1782.82,1010.07 Z" fill="none" stroke="rgb(57, 215, 42)" stroke-width="14.65" stroke-opacity="1.00" stroke-linejoin="round"/>
<path d="M1796.38,1015.99 C1796.78,1015.80 1818.51,1015.81 1827.47,1015.91 C1839.92,1016.06 1846.99,1016.48 1855.62,1018.70 C1860.05,1019.88 1867.35,1022.16 1869.51,1023.09 C1873.31,1024.75 1879.03,1028.75 1881.31,1030.79 C1883.31,1032.59 1888.14,1038.10 1889.56,1040.26 C1893.02,1045.61 1897.39,1059.43 1898.81,1067.40 C1900.15,1075.10 1899.67,1089.00 1898.42,1096.77 C1897.97,1099.49 1896.07,1108.21 1895.23,1110.81 C1893.99,1114.54 1890.54,1120.70 1887.67,1123.98 C1886.27,1125.55 1879.24,1132.39 1876.57,1134.18 C1872.45,1136.91 1856.33,1142.49 1850.86,1143.23 C1841.00,1144.54 1797.02,1144.41 1796.34,1143.84 C1795.98,1143.53 1795.98,1022.45 1795.79,1020.72 C1795.71,1019.75 1795.61,1016.40 1796.38,1015.99 Z" fill="none" stroke="rgb(57, 215, 42)" stroke-width="14.65" stroke-opacity="1.00" stroke-linejoin="round"/>
</g>
</svg>
